# xmcd CD database file
#
# Track frame offsets:
#	150
#	39102
#	85535
#	116657
#	138265
#	179636
#	206941
#	257192
#	296634
#
# Disc length: 4558 seconds
#
# Revision: 0
# Processed by: cddbd v1.4PL0 Copyright (c) Steve Scherf et al.
# Submitted via: CDex 1.50beta10
#
DISCID=8211cc09
DTITLE=Bertrand Auger Quintet - Metamorphosis
DYEAR=2002
DGENRE=Jazz
TTITLE0=Penta's Tic
TTITLE1=Invitation
TTITLE2=Onzolyd
TTITLE3=Bela Bali
TTITLE4=Pascal
TTITLE5=Le Jeu Des 7 Erreurs
TTITLE6=Latour 84
TTITLE7=Le Toit Du Ciel
TTITLE8=All The Things You Are
EXTD=YEAR: 2002
EXTT0=
EXTT1=
EXTT2=
EXTT3=
EXTT4=
EXTT5=
EXTT6=
EXTT7=
EXTT8=
PLAYORDER=
